<?xml version="1.0" encoding="UTF-8"?>
<svg width="648.44" height="647.01" version="1.1" viewBox="0 0 171.57 171.19" xmlns="http://www.w3.org/2000/svg" xmlns:cc="http://creativecommons.org/ns#" xmlns:dc="http://purl.org/dc/elements/1.1/" xmlns:rdf="http://www.w3.org/1999/02/22-rdf-syntax-ns#">
 <metadata>
  <rdf:RDF>
   <cc:Work rdf:about="">
    <dc:format>image/svg+xml</dc:format>
    <dc:type rdf:resource="http://purl.org/dc/dcmitype/StillImage"/>
    <dc:title/>
   </cc:Work>
  </rdf:RDF>
 </metadata>
 <style>path {
        fill: #111;
    }
    @media (prefers-color-scheme: dark) {
        path {
            fill: #EEE;
        }
    }</style>
 <g transform="translate(325.78 256.35)">
  <g stroke-width=".26458" aria-label="ⓘ">
   <path d="m-245.85-256.19q37.896-2.0671 63.39 22.049 28.25 26.872 28.25 63.39 0 33.762-22.738 57.878-24.805 26.183-57.189 27.561-39.274 2.0671-66.146-24.805-24.805-24.805-25.494-60.634 0-33.762 22.738-57.878 24.805-26.183 57.189-27.561zm6.2012 164.68q33.073 0 55.811-23.427 21.36-21.36 22.738-50.298 2.0671-36.518-22.738-61.323-22.738-23.427-55.811-23.427-32.384 0-56.5 23.427-21.36 21.36-22.738 49.609-2.0671 37.207 22.738 62.012 24.116 23.427 56.5 23.427zm-2.7561-148.83q4.8231 0.68902 8.9572 4.1341 4.1341 4.1341 4.1341 8.2682t-3.4451 8.2682q-4.8231 5.5122-10.335 4.8231-4.8231-0.68902-8.2682-4.1341-4.1341-4.1341-4.1341-8.9572 0-4.1341 4.1341-8.2682 4.1341-3.4451 8.9573-4.1341zm17.225 123.33q3.4451 2.0671 11.024 1.378v4.8231h-52.365v-4.8231q9.6463 0 11.713-2.0671 4.1341-2.7561 4.1341-11.713v-49.609q0-8.2682-3.4451-11.024-2.0671-1.378-12.402-2.7561v-4.1341q19.293-1.378 36.518-4.1341v74.414q0 7.5792 4.8231 9.6463z"/>
  </g>
 </g>
</svg>
